<?xml version="1.0" encoding="utf-8"?>
<!-- Generator: Adobe Illustrator 21.1.0, SVG Export Plug-In . SVG Version: 6.00 Build 0)  -->
<svg version="1.1" id="Layer_1" xmlns="http://www.w3.org/2000/svg" xmlns:xlink="http://www.w3.org/1999/xlink" x="0px" y="0px"
	 viewBox="0 0 600 300" style="enable-background:new 0 0 600 300;" xml:space="preserve">
<style type="text/css">
	.st0{fill:none;stroke:#38424B;stroke-width:2.9173;}
	.st1{fill:none;stroke:#38424B;stroke-width:1.4173;stroke-miterlimit:10;}
</style>
<g id="XMLID_23_">
	<g>
		<path class="st0" d="M599.8,300.5H0.3l36.5-92.6l17.6,7.6L278.7,15.9l20.8,33.3l27.3-5.3l4.4-15.5l23,1.2l9.7-29.1l39.4,22.1
			L424.2,92l156.4,124.7L599.8,300.5z M29.7,282.7l547.4-0.9l-13.5-53.3L411.7,114L395,80.6l-19.2,32.9l-16.9-55.8l-30.5,38.5V65
			l-97.1,65.8l13.6-48.5L58.3,237l-10.8-2.8L29.7,282.7z"/>
		<path class="st0" d="M599.8,299H0.3z" />
	</g>
	<g>
		<polygon class="st1" points="47.5,234.2 58.3,237 244.8,82.3 231.3,130.8 328.3,65 328.3,96.3 358.9,57.8 375.8,113.6 395,80.6 
			411.7,114 563.6,228.5 577,281.8 29.7,282.7 		"/>
		<polygon class="st1" points="599.8,300.5 580.6,216.7 424.2,92 403.2,22.6 363.9,0.5 354.2,29.6 331.2,28.4 326.8,43.9 
			299.5,49.2 278.7,15.9 54.4,215.5 36.8,207.9 0.3,300.5 		"/>
	</g>
</g>
</svg>
